<svg xmlns="http://www.w3.org/2000/svg" width="111" height="111" viewBox="0 0 111 111">
  <g id="Group_504" data-name="Group 504" transform="translate(-829 -4837)">
    <circle id="Ellipse_114" data-name="Ellipse 114" cx="40.5" cy="40.5" r="40.5" transform="translate(844 4852)" fill="#fca311"/>
    <g id="Ellipse_113" data-name="Ellipse 113" transform="translate(829 4837)" fill="none" stroke="#14213d" stroke-width="7">
      <circle cx="55.5" cy="55.5" r="55.5" stroke="none"/>
      <circle cx="55.5" cy="55.5" r="52" fill="none"/>
    </g>
    <g id="twitter" transform="translate(857.743 4873.619)">
      <path id="Path_611" data-name="Path 611" d="M52.693,9.683a1.008,1.008,0,0,0-1.171.031,6.037,6.037,0,0,1-1.976.822c2.058-2.306,2.1-3.846,2.08-4.2a1.005,1.005,0,0,0-1.594-.75,10.686,10.686,0,0,1-5.993,2.074A11.126,11.126,0,0,0,36.29,4.542a11.385,11.385,0,0,0-11.3,11.447,11.66,11.66,0,0,0,.114,1.622C14.312,17.489,5.546,7.145,5.455,7.037a1.006,1.006,0,0,0-1.643.143C.706,12.569,2.785,17.3,4.685,20.012a6.652,6.652,0,0,1-.771-.476,1.006,1.006,0,0,0-1.607.79,10.985,10.985,0,0,0,4.712,9.7,1.006,1.006,0,0,0-1.062,1.294,10.785,10.785,0,0,0,8.056,7.647C8.856,42.987,1.266,41.694,1.182,41.68A1.005,1.005,0,0,0,.4,43.468c5.444,4.155,11.956,5.075,16.659,5.075a32.117,32.117,0,0,0,6.324-.58c23.825-5.646,24.5-27.469,24.44-31.045,4.473-4.159,5.172-5.744,5.279-6.136A1,1,0,0,0,52.693,9.683ZM46.12,15.751a1,1,0,0,0-.322.807c.063.965,1.282,23.723-22.864,29.445-.11.023-9.708,2.026-18.028-2.1,3.516-.1,8.557-1.018,12.068-4.961a1,1,0,0,0-.75-1.674h-.01a8.94,8.94,0,0,1-7.746-5.028A6.847,6.847,0,0,0,11.6,31.8a1.005,1.005,0,0,0-.214-1.9,9.15,9.15,0,0,1-6.97-7.782,5.877,5.877,0,0,0,3.161.537A1.006,1.006,0,0,0,8.083,20.9c-.251-.219-5.771-5.124-3.154-11.451C7.77,12.431,16.185,20.177,26.38,19.592a1.006,1.006,0,0,0,.918-1.249,9.68,9.68,0,0,1-.292-2.354,9.373,9.373,0,0,1,9.286-9.436,9.147,9.147,0,0,1,6.614,2.815,1.009,1.009,0,0,0,.7.306,12.491,12.491,0,0,0,4.8-.9A16.189,16.189,0,0,1,45.765,11.3a1.005,1.005,0,0,0,.7,1.793,22.721,22.721,0,0,0,2.779-.416C48.507,13.471,47.5,14.482,46.12,15.751Z" transform="translate(0 -4.542)"/>
    </g>
  </g>
</svg>
