<svg xmlns="http://www.w3.org/2000/svg" width="20.101" height="16.646" viewBox="0 0 20.101 16.646">
  <g id="twitter" transform="translate(0 -4.542)">
    <path id="Path_611" data-name="Path 611" d="M19.934,6.487a.381.381,0,0,0-.443.012,2.284,2.284,0,0,1-.747.311,2.37,2.37,0,0,0,.787-1.589.38.38,0,0,0-.6-.284,4.043,4.043,0,0,1-2.267.785,4.209,4.209,0,0,0-2.931-1.18A4.307,4.307,0,0,0,9.455,8.873a4.411,4.411,0,0,0,.043.613c-4.084-.046-7.4-3.959-7.435-4a.38.38,0,0,0-.621.054,4.335,4.335,0,0,0,.33,4.855,2.516,2.516,0,0,1-.292-.18.381.381,0,0,0-.608.3,4.156,4.156,0,0,0,1.783,3.671.381.381,0,0,0-.4.489A4.08,4.08,0,0,0,5.3,17.567,6.923,6.923,0,0,1,.447,18.592a.38.38,0,0,0-.3.677,10.375,10.375,0,0,0,6.3,1.92,12.15,12.15,0,0,0,2.392-.219c9.013-2.136,9.267-10.392,9.246-11.745,1.692-1.573,1.956-2.173,2-2.321A.379.379,0,0,0,19.934,6.487Zm-2.487,2.3a.38.38,0,0,0-.122.305,10.778,10.778,0,0,1-8.65,11.139,11.728,11.728,0,0,1-6.82-.793,6.247,6.247,0,0,0,4.566-1.877.38.38,0,0,0-.284-.633h0a3.382,3.382,0,0,1-2.93-1.9,2.59,2.59,0,0,0,1.184-.168.38.38,0,0,0-.081-.718,3.462,3.462,0,0,1-2.637-2.944,2.223,2.223,0,0,0,1.2.2.381.381,0,0,0,.192-.664C2.963,10.648.874,8.792,1.865,6.4c1.075,1.128,4.258,4.058,8.115,3.837a.381.381,0,0,0,.347-.472,3.662,3.662,0,0,1-.11-.89A3.546,3.546,0,0,1,13.73,5.3a3.46,3.46,0,0,1,2.5,1.065.382.382,0,0,0,.267.116,4.725,4.725,0,0,0,1.814-.342,6.124,6.124,0,0,1-1,.958.38.38,0,0,0,.265.678A8.6,8.6,0,0,0,18.63,7.62C18.351,7.92,17.969,8.3,17.447,8.782Z"/>
  </g>
</svg>
